<svg width="399" height="108" viewBox="0 0 399 108" fill="none" xmlns="http://www.w3.org/2000/svg">
  <rect x="33" y="27" width="9" height="54" rx="4.5" fill="#EE8191"/>
  <rect y="41" width="9" height="25" rx="4.5" fill="#EE8191"/>
  <rect x="390" y="41" width="9" height="25" rx="4.5" fill="#EE8191"/>
  <rect x="165" y="27" width="9" height="54" rx="4.5" fill="#EE8191"/>
  <rect x="66" y="11" width="9" height="86" rx="4.5" fill="#EE8191"/>
  <rect x="132" y="11" width="9" height="86" rx="4.5" fill="#EE8191"/>
  <rect x="99" width="9" height="108" rx="4.5" fill="#EE8191"/>
  <rect x="225" y="27" width="9" height="54" rx="4.5" fill="#EE8191"/>
  <rect x="357" y="27" width="9" height="54" rx="4.5" fill="#EE8191"/>
  <rect x="258" y="11" width="9" height="86" rx="4.5" fill="#EE8191"/>
  <rect x="324" y="11" width="9" height="86" rx="4.5" fill="#EE8191"/>
  <rect x="291" width="9" height="108" rx="4.5" fill="#EE8191"/>
  <ellipse cx="197.453" cy="67.5383" rx="6.23895" ry="7.8429" transform="rotate(70.9017 197.453 67.5383)" fill="#EE8191"/>
  <path d="M199 38C199 36.3431 200.343 35 202 35C203.657 35 205 36.3431 205 38V67H199V38Z" fill="#EE8191"/>
</svg>
